<mxfile host="app.diagrams.net" agent="Mozilla/5.0 (Windows NT 10.0; Win64; x64) AppleWebKit/537.36 (KHTML, like Gecko) Chrome/131.0.0.0 Safari/537.36 Edg/131.0.0.0" version="25.0.3">
  <diagram name="Page-1" id="XkdKyNgcOKKClaSe3WgM">
    <mxGraphModel dx="872" dy="471" grid="1" gridSize="10" guides="1" tooltips="1" connect="1" arrows="1" fold="1" page="1" pageScale="1" pageWidth="850" pageHeight="1100" math="0" shadow="0">
      <root>
        <mxCell id="0" />
        <mxCell id="1" parent="0" />
        <mxCell id="O1aXK9_4WHSp7Ma2BQs2-1" value="Start" style="ellipse;whiteSpace=wrap;html=1;aspect=fixed;" parent="1" vertex="1">
          <mxGeometry x="40" y="70" width="40" height="40" as="geometry" />
        </mxCell>
        <mxCell id="O1aXK9_4WHSp7Ma2BQs2-2" value="" style="endArrow=classic;html=1;rounded=0;" parent="1" edge="1">
          <mxGeometry width="50" height="50" relative="1" as="geometry">
            <mxPoint x="60" y="110" as="sourcePoint" />
            <mxPoint x="60" y="160" as="targetPoint" />
          </mxGeometry>
        </mxCell>
        <mxCell id="O1aXK9_4WHSp7Ma2BQs2-3" value="Actor" style="shape=umlActor;verticalLabelPosition=bottom;verticalAlign=top;html=1;outlineConnect=0;" parent="1" vertex="1">
          <mxGeometry x="45" y="160" width="30" height="60" as="geometry" />
        </mxCell>
        <mxCell id="O1aXK9_4WHSp7Ma2BQs2-6" value="" style="verticalLabelPosition=bottom;verticalAlign=top;html=1;shadow=0;dashed=0;strokeWidth=1;shape=mxgraph.android.phone2;strokeColor=#000000;" parent="1" vertex="1">
          <mxGeometry x="200" y="175" width="27" height="45" as="geometry" />
        </mxCell>
        <mxCell id="O1aXK9_4WHSp7Ma2BQs2-7" value="" style="edgeStyle=orthogonalEdgeStyle;html=1;endArrow=block;elbow=vertical;startArrow=none;endFill=1;strokeColor=#545B64;rounded=0;jumpSize=6;startSize=6;entryX=0;entryY=0.511;entryDx=0;entryDy=0;entryPerimeter=0;" parent="1" target="O1aXK9_4WHSp7Ma2BQs2-6" edge="1">
          <mxGeometry width="100" relative="1" as="geometry">
            <mxPoint x="60" y="198" as="sourcePoint" />
            <mxPoint x="160" y="198" as="targetPoint" />
          </mxGeometry>
        </mxCell>
        <mxCell id="O1aXK9_4WHSp7Ma2BQs2-8" value="&lt;font style=&quot;font-size: 10px;&quot;&gt;First Mobile&lt;/font&gt;" style="text;html=1;align=center;verticalAlign=middle;resizable=0;points=[];autosize=1;strokeColor=none;fillColor=none;" parent="1" vertex="1">
          <mxGeometry x="177.5" y="220" width="80" height="30" as="geometry" />
        </mxCell>
        <mxCell id="O1aXK9_4WHSp7Ma2BQs2-9" value="&lt;font style=&quot;font-size: 9px;&quot;&gt;Customer initiates&lt;/font&gt;&lt;div&gt;&lt;font style=&quot;font-size: 9px;&quot;&gt;transaction&lt;/font&gt;&lt;/div&gt;" style="text;html=1;align=center;verticalAlign=middle;resizable=0;points=[];autosize=1;strokeColor=none;fillColor=none;" parent="1" vertex="1">
          <mxGeometry x="77" y="153" width="100" height="40" as="geometry" />
        </mxCell>
        <mxCell id="O1aXK9_4WHSp7Ma2BQs2-11" value="" style="edgeStyle=orthogonalEdgeStyle;html=1;endArrow=block;elbow=vertical;startArrow=none;endFill=1;strokeColor=#545B64;rounded=0;" parent="1" edge="1">
          <mxGeometry width="100" relative="1" as="geometry">
            <mxPoint x="228" y="200" as="sourcePoint" />
            <mxPoint x="320" y="200" as="targetPoint" />
          </mxGeometry>
        </mxCell>
        <mxCell id="O1aXK9_4WHSp7Ma2BQs2-13" value="&lt;font style=&quot;font-size: 10px;&quot;&gt;FirstMobile Middleware Wrapper&lt;/font&gt;" style="rounded=1;whiteSpace=wrap;html=1;" parent="1" vertex="1">
          <mxGeometry x="321" y="173.5" width="109" height="51.5" as="geometry" />
        </mxCell>
        <mxCell id="O1aXK9_4WHSp7Ma2BQs2-14" value="&lt;font style=&quot;font-size: 10px;&quot;&gt;FirstMobile API&lt;/font&gt;" style="rounded=1;whiteSpace=wrap;html=1;" parent="1" vertex="1">
          <mxGeometry x="531" y="174" width="108" height="49" as="geometry" />
        </mxCell>
        <mxCell id="O1aXK9_4WHSp7Ma2BQs2-20" value="" style="endArrow=classic;html=1;rounded=0;" parent="1" edge="1">
          <mxGeometry width="50" height="50" relative="1" as="geometry">
            <mxPoint x="788" y="230" as="sourcePoint" />
            <mxPoint x="788" y="320" as="targetPoint" />
          </mxGeometry>
        </mxCell>
        <mxCell id="O1aXK9_4WHSp7Ma2BQs2-23" value="&lt;font style=&quot;font-size: 11px;&quot;&gt;First mobile&lt;/font&gt;&lt;div style=&quot;font-size: 11px;&quot;&gt;&lt;font style=&quot;font-size: 11px;&quot;&gt;calls the&amp;nbsp;&lt;/font&gt;&lt;/div&gt;&lt;div style=&quot;font-size: 11px;&quot;&gt;&lt;font style=&quot;font-size: 11px;&quot;&gt;middleware&lt;/font&gt;&lt;/div&gt;" style="text;html=1;align=center;verticalAlign=middle;resizable=0;points=[];autosize=1;strokeColor=none;fillColor=none;" parent="1" vertex="1">
          <mxGeometry x="231" y="139" width="80" height="50" as="geometry" />
        </mxCell>
        <mxCell id="O1aXK9_4WHSp7Ma2BQs2-25" value="&lt;span style=&quot;font-size: 11px;&quot;&gt;Middleware verifies&lt;/span&gt;&lt;span style=&quot;font-size: 11px; background-color: initial;&quot;&gt;&amp;nbsp;customer&lt;/span&gt;&lt;div&gt;&lt;span style=&quot;font-size: 11px;&quot;&gt;transaction pin&lt;/span&gt;&lt;/div&gt;&lt;div&gt;&lt;span style=&quot;font-size: 11px;&quot;&gt;and calls First Mobile&lt;/span&gt;&lt;/div&gt;&lt;div&gt;&lt;span style=&quot;font-size: 11px;&quot;&gt;API&lt;/span&gt;&lt;/div&gt;" style="text;html=1;align=center;verticalAlign=middle;resizable=0;points=[];autosize=1;strokeColor=none;fillColor=none;" parent="1" vertex="1">
          <mxGeometry x="396" y="118" width="170" height="70" as="geometry" />
        </mxCell>
        <mxCell id="O1aXK9_4WHSp7Ma2BQs2-27" value="" style="endArrow=classic;html=1;rounded=0;" parent="1" edge="1">
          <mxGeometry width="50" height="50" relative="1" as="geometry">
            <mxPoint x="431" y="200" as="sourcePoint" />
            <mxPoint x="530" y="200" as="targetPoint" />
          </mxGeometry>
        </mxCell>
        <mxCell id="4aYripO992kBkRN04ok3-1" value="" style="endArrow=classic;html=1;rounded=0;" parent="1" target="4aYripO992kBkRN04ok3-2" edge="1">
          <mxGeometry width="50" height="50" relative="1" as="geometry">
            <mxPoint x="640" y="200" as="sourcePoint" />
            <mxPoint x="760" y="200" as="targetPoint" />
          </mxGeometry>
        </mxCell>
        <mxCell id="4aYripO992kBkRN04ok3-2" value="PostBridge Service" style="rounded=1;whiteSpace=wrap;html=1;" parent="1" vertex="1">
          <mxGeometry x="740" y="174" width="97" height="56" as="geometry" />
        </mxCell>
        <mxCell id="4aYripO992kBkRN04ok3-3" value="Calls .Net Core PostBridge Service to post&amp;nbsp;&lt;div&gt;transaction to Finacle&lt;/div&gt;" style="text;html=1;align=center;verticalAlign=middle;resizable=0;points=[];autosize=1;strokeColor=none;fillColor=none;" parent="1" vertex="1">
          <mxGeometry x="569" y="112" width="250" height="40" as="geometry" />
        </mxCell>
        <mxCell id="C9wvvluGunl7nZrO4XSG-1" value="Connect 24&lt;div&gt;Service&lt;/div&gt;" style="rounded=1;whiteSpace=wrap;html=1;" parent="1" vertex="1">
          <mxGeometry x="735" y="320" width="108" height="50" as="geometry" />
        </mxCell>
        <mxCell id="C9wvvluGunl7nZrO4XSG-2" value="Sends ISO8583&lt;div&gt;message to Connect&lt;/div&gt;&lt;div&gt;24 service which posts&lt;/div&gt;&lt;div&gt;transaction to Finacle&lt;/div&gt;" style="text;html=1;align=center;verticalAlign=middle;resizable=0;points=[];autosize=1;strokeColor=none;fillColor=none;" parent="1" vertex="1">
          <mxGeometry x="648" y="235" width="140" height="70" as="geometry" />
        </mxCell>
      </root>
    </mxGraphModel>
  </diagram>
</mxfile>
